<?xml version="1.0" standalone="no"?>
<!DOCTYPE svg PUBLIC "-//W3C//DTD SVG 20010904//EN"
 "http://www.w3.org/TR/2001/REC-SVG-20010904/DTD/svg10.dtd">
<svg version="1.0" xmlns="http://www.w3.org/2000/svg"
 width="243.000000pt" height="243.000000pt" viewBox="0 0 243.000000 243.000000"
 preserveAspectRatio="xMidYMid meet">
<metadata>
Created by potrace 1.14, written by Peter Selinger 2001-2017
</metadata>
<g transform="translate(0.000000,243.000000) scale(0.100000,-0.100000)"
fill="#000000" stroke="none">
<path d="M10 2400 c0 -23 4 -30 20 -30 44 0 141 -35 175 -62 65 -54 65 -56 65
-499 0 -408 -2 -430 -40 -470 -32 -33 -77 -56 -135 -68 -33 -7 -66 -15 -72
-17 -7 -2 -13 -17 -13 -34 l0 -30 213 0 c213 0 256 5 393 48 104 33 263 157
297 233 38 84 40 110 41 450 l1 336 30 29 c52 50 141 84 226 84 49 0 189 -26
244 -45 37 -13 130 -60 149 -75 47 -38 86 -78 86 -89 0 -6 3 -11 8 -11 4 0 16
-19 26 -42 16 -38 18 -72 19 -295 l0 -252 -27 -54 c-46 -95 -159 -177 -296
-216 -86 -24 -171 -31 -376 -32 -205 0 -248 -4 -364 -27 -80 -16 -168 -57
-246 -114 -63 -45 -106 -96 -139 -164 l-25 -51 0 -336 c0 -244 -3 -344 -12
-364 -16 -35 -64 -79 -103 -94 -16 -6 -38 -15 -47 -20 -10 -5 -36 -9 -58 -9
-37 0 -40 -2 -40 -29 0 -16 6 -31 15 -35 8 -3 273 -6 588 -6 615 0 618 0 603
48 -6 18 -15 22 -47 22 -22 0 -47 4 -57 9 -9 5 -36 17 -59 26 -23 10 -55 32
-70 49 l-28 31 -1 428 c0 449 0 457 44 497 32 29 71 50 92 50 12 0 29 4 39 10
11 5 130 10 272 10 215 1 268 5 344 21 184 41 188 43 299 96 156 76 281 193
342 320 33 69 35 76 35 187 0 63 -4 123 -10 133 -5 10 -17 37 -27 60 -11 24
-22 43 -26 43 -5 0 -8 6 -8 14 0 23 -131 150 -200 195 -70 46 -183 101 -205
101 -8 0 -17 4 -20 10 -3 6 -17 10 -31 10 -13 0 -32 4 -42 9 -9 5 -48 17 -87
25 -61 14 -181 16 -912 16 l-843 0 0 -30z"/>
</g>
</svg>
